# xmcd
#
# Track frame offsets:
#	150
#	12008
#	27567
#	40664
#	53678
#	66631
#	96155
#	108535
#	121178
#	135032
#	144078
#	159404
#	169874
#	182894
#	196829
#	207011
#	224453
#	238105
#	250043
#	259043
#	272437
#	284028
#	295351
#	310238
#
# Disc length: 4324 seconds
#
# Revision: 0
# Processed by: cddbd v1.5.2PL0 Copyright (c) Steve Scherf et al.
# Submitted via: MusicWizard 7.2.0
#
DISCID=5c10e218
DTITLE=Various Artist - Stride Piano
DYEAR=1900
DGENRE=Piano
TTITLE0=James P. Johnson - The Carolina Shout
TTITLE1=James P. Johnson - Jingles
TTITLE2=Luckey Roberts - Ripples Of The Nile
TTITLE3=Willie "The Lion" Smith - Rippling Waters
TTITLE4=Fats Waller - Handful Of Keys
TTITLE5=Fats Waller - Medley: Ain't Misbehavin Et Al
TTITLE6=Donald Lambert - Anitra's Dance
TTITLE7=Cliff Jackson - Limehouse Blues
TTITLE8=Pat Flowers - Honeysuckle Rose
TTITLE9=Hank Duncan - Oh, Lady Be Good
TTITLE10=Don Frye - The Man In The Moon
TTITLE11=Joe Turner - The Ladder
TTITLE12=Don Ewell - Parlor Social
TTITLE13=Ralph Sutton - Bee's Knees
TTITLE14=Art Tatum - I Wish I Were Twins
TTITLE15=Count Basie - I Ain't Got Nobody
TTITLE16=Mary Lou Williams - Night Life
TTITLE17=Joe Sullivan - Little Rock Getaway
TTITLE18=Duke Ellington - Swing Session
TTITLE19=Johnny Guarnieri - Exactly Like You
TTITLE20=Mel Powell - Hommage à Fats Waller
TTITLE21=Nat Jaffe - Zonky
TTITLE22=Erroll Garner - Play Piano Play
TTITLE23=Eubie Blake - Sounds Of Africa
EXTD=Sagajazz No 31
EXTT0=
EXTT1=
EXTT2=
EXTT3=
EXTT4=
EXTT5=
EXTT6=
EXTT7=
EXTT8=
EXTT9=
EXTT10=
EXTT11=
EXTT12=
EXTT13=
EXTT14=
EXTT15=
EXTT16=
EXTT17=
EXTT18=
EXTT19=
EXTT20=
EXTT21=
EXTT22=
EXTT23=
PLAYORDER=
